<?xml version="1.0" encoding="UTF-8"?>
<svg id="SAM_ICON" xmlns="http://www.w3.org/2000/svg" version="1.1" xmlns:xlink="http://www.w3.org/1999/xlink" viewBox="0 0 141.7 141.7">
  <defs>
    <style>
      .cls-1 {
        fill: url(#linear-gradient);
      }

      .cls-1, .cls-2, .cls-3, .cls-4, .cls-5, .cls-6, .cls-7, .cls-8 {
        stroke-width: 0px;
      }

      .cls-2 {
        fill: #000;
      }

      .cls-3 {
        fill: #000002;
      }

      .cls-4 {
        fill: url(#linear-gradient-5);
      }

      .cls-5 {
        fill: url(#linear-gradient-2);
      }

      .cls-6 {
        fill: url(#linear-gradient-3);
      }

      .cls-7 {
        fill: #fff;
      }

      .cls-8 {
        fill: url(#linear-gradient-4);
      }
    </style>
    <linearGradient id="linear-gradient" x1="102.6" y1="66.7" x2="135.9" y2="88.3" gradientUnits="userSpaceOnUse">
      <stop offset="0" stop-color="#fff"/>
      <stop offset=".5" stop-color="#fff"/>
      <stop offset=".8" stop-color="#000"/>
    </linearGradient>
    <linearGradient id="linear-gradient-2" x1="78.5" y1="49.4" x2="104.1" y2="35.7" xlink:href="#linear-gradient"/>
    <linearGradient id="linear-gradient-3" x1="48.8" y1="59.1" x2="12.2" y2="41.7" xlink:href="#linear-gradient"/>
    <linearGradient id="linear-gradient-4" x1="62.6" y1="74.9" x2="34.6" y2="88.8" xlink:href="#linear-gradient"/>
    <linearGradient id="linear-gradient-5" x1="71.9" y1="48.6" x2="71.9" y2="48.6" xlink:href="#linear-gradient"/>
  </defs>
  <rect id="Background" class="cls-3" x="0" y=".1" width="141.7" height="141.7"/>
  <g id="Figures">
    <g>
      <path class="cls-7" d="M111.3,71c-2-1.2-4.1-2.5-6.1-3.8h0c0,0-.1,0-.2.1h-.2c-.4.5-.8.8-1.2,1-.2.1-.3.2-.5.3-.3.2-.6.5-.9.7,0,0-.2.2-.3.2-.2.2-.4.3-.6.5-.1,0-.2.2-.4.3,1.6,1,3.1,2,4.7,2.9,1,.6,2.1,1.3,3.1,1.9.2-1.7,1.1-3.3,2.5-4.2Z"/>
      <path class="cls-7" d="M105,67.2c-.3-.2-.6-.4-.9-.5-.3-.2-.6-.3-.9-.5-.3-.2-.6-.3-.9-.5-.3-.2-.6-.3-.9-.5-.3-.2-.6-.4-.9-.5-.3-.2-.6-.4-.9-.6-.3-.2-.6-.4-.9-.6-.3-.2-.6-.4-.9-.6-.3-.2-.6-.4-.9-.6-.3-.2-.6-.4-.9-.6-.2-.2-.5-.3-.8-.5,0,0-.1,0-.2,0-.3-.2-.6-.4-.9-.6-.3-.2-.6-.4-.9-.6-.3-.2-.6-.4-.9-.6-.3-.2-.6-.4-.9-.7-.3-.2-.6-.4-.9-.7-.3-.2-.6-.4-.9-.7-.3-.2-.6-.5-.9-.7-.5-.3-.9-.7-1.3-1-.6-.5-1.2-.9-1.8-1.4,0,0-.1,0-.2-.1-.7-.6-1.4-1.1-2.1-1.7-.8-.7-1.6-1.3-2.4-2,1.8-.8,3.6-1.7,5.4-2.5-1.4-.8-2.4-2.3-2.6-3.8-2.1,1.1-4.3,2.1-6.4,3.1h0c-.2-.2-.5-.5-.7-.7-.8.4-1.9,1-2.8,1.4h0s0,0,0,0c0,0,0,0,0,0,0,0,0,0-.2,0,0,0-.2,0-.3.1-.8.3-1.5.7-2.3,1-1.5.7-3.1,1.2-4.6,1.8-2.9,1.1-5.9,2-8.9,2.7-3,.8-6.1,1.3-9.2,1.8-.2,0-.5,0-.8.1-.1,0-.2,0-.4,0,0,0,0,0,0,0h0s0,0,0,0c0,0,0,0,0,0,0,0,0,0,.1,0,.3.2.6.5.9.8.6.5,1.2,1,1.7,1.5,0,0,0,0,.1.1-4.4,1.4-8.9,2.7-13.4,3.9,3.3,1.6,6.6,3,9.9,4.2,3.3,1.2,6.5,2.1,9.7,2.9,3.2.8,6.3,1.3,9.4,1.7,6.1-.9,12.3-2.9,18.5-5.9-.3.2-.5.5-.8.7-.5.4-.9.7-1.3,1.1-.3.2-.6.5-.9.7s-.6.5-.9.7c-.2.1-.4.3-.6.4-.1,0-.2.2-.3.2-.3.2-.6.4-.9.7-.3.2-.6.4-.9.6-.3.2-.6.4-.9.7-.3.2-.6.4-.9.7-.2.2-.5.3-.7.5h-.2c-.3.4-.6.6-.9.8-.3.2-.6.4-.9.6s-.6.4-.9.6c-.3.2-.6.4-.9.6-.3.2-.6.4-.9.6-.3.2-.6.4-.9.6-.3.2-.6.4-.9.6-.3.2-.6.4-.9.6-.3.2-.6.4-.9.6-.4.2-.7.5-1.1.7-9.5-2.7-19.1-6.1-28.7-10.2.3,1.6-.3,3.3-1.4,4.6,2.9,1.2,5.8,2.3,8.7,3.4,7.2,2.6,14.3,4.9,21.4,6.7.4-.2.7-.4,1.1-.6.3-.2.6-.3.9-.5.3-.2.6-.3.9-.5.3-.2.6-.4.9-.5.3-.2.6-.4.9-.5.3-.2.6-.4.9-.6.3-.2.6-.4.9-.6.3-.2.6-.4.9-.6s.6-.4.9-.6c.3-.2.6-.4.9-.6.2-.2.5-.3.8-.5,0,0,0,0,.1,0,.3-.2.6-.4.9-.6.3-.2.6-.4.9-.6s.6-.4.9-.6c.3-.2.6-.4.9-.7.3-.2.6-.4.9-.7.3-.2.6-.4.9-.7.3-.2.6-.5.9-.7.4-.3.9-.7,1.3-1,.6-.5,1.2-.9,1.8-1.4,0,0,.1,0,.2-.1.7-.6,1.4-1.1,2.1-1.7.9-.7,1.8-1.5,2.6-2.2.3.2.5.4.8.5.3.2.6.4.9.6.3.2.6.4.9.6s.6.4.9.6c.3.2.6.4.9.6.1,0,.2.2.4.2-.1,0-.2.2-.4.3-.3.2-.6.5-.9.7-.3.2-.6.5-.9.7-.3.2-.6.5-.9.7-.3.2-.6.4-.9.7-.3.2-.6.4-.9.7-.3.2-.6.4-.9.6-.5.3-.9.7-1.3,1-.6.4-1.2.8-1.8,1.3-.7.5-1.5,1.1-2.2,1.6-.9.6-1.8,1.3-2.7,1.9-1,.7-2.1,1.4-3.1,2.1-1.2.8-2.4,1.6-3.6,2.4-1.3.9-2.7,1.7-4,2.6-1.5.9-3,1.9-4.5,2.8-.2.1-.4.2-.5.3,0,0,0,0-.1,0,1.9.4,3.5,1.9,4.1,3.7.3-.2.7-.4,1-.6,1.3-.8,2.7-1.6,4-2.5,1.2-.7,2.4-1.5,3.6-2.3,1-.7,2.1-1.4,3.1-2,.9-.6,1.8-1.2,2.7-1.8l.3-.2c.6-.4,1.3-.9,1.9-1.3.6-.4,1.2-.8,1.8-1.2.4-.3.9-.6,1.3-.9.3-.2.6-.4.9-.6.3-.2.6-.4.9-.6.3-.2.6-.4.9-.6.3-.2.6-.4.9-.7.3-.2.6-.4.9-.6.3-.2.6-.4.9-.7.3-.2.6-.4.9-.7.3-.2.6-.4.9-.7.3-.2.6-.4.9-.7.3-.2.6-.4.9-.7.3-.2.6-.5.9-.7.3-.2.6-.4.9-.7.3-.2.6-.5.9-.7.2-.1.4-.3.5-.4h0c.1,0,.2-.2.4-.3.2-.2.4-.3.6-.5.1,0,.2-.1.3-.2.3-.2.6-.5.9-.7.2-.1.3-.2.5-.3.4-.3.8-.6,1.2-.9h.2c0-.2.1-.2.2-.3,0,0-.1,0-.2,0ZM65.6,68.7c-1.5-.3-3-.7-4.5-1.2-1.5-.5-3-.9-4.6-1.4-3.1-1-6.2-2.1-9.3-3.4,2.2-.6,4.3-1.3,6.5-1.9-.1,0-.2-.2-.3-.2-.4-.3-.7-.6-1.1-.9.5.4.9.7,1.4,1.1,2.3,1.8,4.8,3.5,7.3,5.1,1.5,1,4.8,2.8,4.7,2.8,0,0,0,0,0,0Z"/>
      <path class="cls-7" d="M91.5,63.6c-.3.3-.6.5-.9.8,0,0-.1.1-.2.1,0,0,.1,0,.2-.2.3-.2.6-.5.9-.8.1-.1.3-.2.4-.4-.1.1-.3.2-.4.4Z"/>
      <path class="cls-7" d="M92,63.3c-.1.1-.3.2-.4.4-.3.3-.6.5-.9.8,0,0-.1.1-.2.1,0,0,.1,0,.2-.2.3-.2.6-.5.9-.8.1-.1.3-.2.4-.4Z"/>
      <path class="cls-7" d="M53.6,60.8c-.1,0-.2-.2-.3-.2-.4-.3-.7-.6-1.1-.9.5.4.9.7,1.4,1.1Z"/>
      <path class="cls-7" d="M53.6,60.8c-.1,0-.2-.2-.3-.2-.4-.3-.7-.6-1.1-.9.5.4.9.7,1.4,1.1Z"/>
      <path class="cls-7" d="M92,63.3c-.1.1-.3.2-.4.4-.3.3-.6.5-.9.8,0,0-.1.1-.2.1,0,0,.1,0,.2-.2.3-.2.6-.5.9-.8.1-.1.3-.2.4-.4Z"/>
      <path class="cls-7" d="M104.8,67.5c-.2.2-.5.4-.7.6-.2.1-.3.2-.5.3.4-.3.8-.6,1.2-.9Z"/>
      <path class="cls-7" d="M71.9,48.6h0Z"/>
    </g>
    <g>
      <path class="cls-1" d="M140.7,86.6c-7.2-3.3-14.4-7-21.7-11-4.7-2.6-9.3-5.4-13.9-8.4,0,0,0,0,0,0-1.4,1.1-2.7,2.1-4.1,3.2,1.5,1,3.1,1.9,4.7,2.9,9.9,6,19.8,11.4,29.8,16,1.8-.9,3.5-1.7,5.3-2.6Z"/>
      <path class="cls-5" d="M101.2,34.5c-7.7,4.5-15.6,8.7-23.7,12.5,1.2,1.1,2.4,2.2,3.7,3.2,8.7-3.9,17.1-8.3,25.3-13.1-1.8-.9-3.5-1.7-5.3-2.6Z"/>
      <path class="cls-6" d="M94.6,60.9c-.1.1-.2.2-.4.3-.3.3-.6.5-.9.8,0,0-.2.2-.3.2h0c-.2.2-.4.4-.6.6-.2.1-.3.3-.5.4-.1.1-.3.2-.4.4-.3.3-.6.5-.9.8,0,0-.1,0-.2.1-.2.2-.4.3-.6.5,0,0,0,0,0,0-.9.8-1.7,1.5-2.6,2.2-.7.6-1.4,1.1-2.1,1.7,0,0-.1,0-.2.1-.6.5-1.2.9-1.8,1.4-.4.3-.9.7-1.3,1-.3.2-.6.5-.9.7-.3.2-.6.4-.9.7-.3.2-.6.4-.9.7-.3.2-.6.4-.9.6-.3.2-.6.4-.9.6-.3.2-.6.4-.9.6-.3.2-.6.4-.9.6,0,0,0,0-.1,0-.3.2-.5.3-.8.5-.3.2-.6.4-.9.6-.3.2-.6.4-.9.6-.3.2-.6.4-.9.6-.3.2-.6.4-.9.6-.3.2-.6.4-.9.6-.3.2-.6.4-.9.5-.3.2-.6.4-.9.5-.3.2-.6.4-.9.5-.3.2-.6.3-.9.5-.4.2-.7.4-1.1.6-7.1-1.8-14.2-4-21.4-6.7-7.2-2.6-14.4-5.7-21.6-9.1-7.2-3.4-14.4-7.3-21.7-11.5,1.8-.9,3.5-1.9,5.3-2.9,9.9,5.8,19.9,10.8,29.8,15,9.9,4.3,19.8,7.8,29.5,10.5.4-.2.7-.5,1.1-.7.3-.2.6-.4.9-.6.3-.2.6-.4.9-.6.3-.2.6-.4.9-.6.3-.2.6-.4.9-.6.3-.2.6-.4.9-.6.3-.2.6-.4.9-.6.3-.2.6-.4.9-.6.3-.2.6-.4.9-.6.3-.2.6-.4.9-.6,0,0,.1,0,.2-.1.2-.2.5-.3.7-.5.3-.2.6-.4.9-.6.3-.2.6-.4.9-.7.3-.2.6-.4.9-.7.3-.2.6-.4.9-.7.1,0,.2-.2.3-.2.2-.1.4-.3.6-.4.3-.2.6-.5.9-.7.3-.2.6-.5.9-.7.4-.4.9-.7,1.3-1.1.3-.2.6-.5.8-.7-.3,0-.6-.1-.8-.2-.4-.1-.9-.2-1.3-.4-.3,0-.6-.2-.9-.3-.3,0-.6-.2-.9-.3-3.4-1-6.8-2.4-10.1-3.9,0,0,0,0,0,0,.3-.2.5-.4.7-.5.4-.3.9-.6,1.3-.9,0,0,.2-.1.3-.2.2-.2.4-.3.6-.5.1,0,.2-.2.4-.3.1,0,.2-.2.4-.3.1,0,.2-.2.4-.3.7-.5,1.4-1.1,2-1.6.2,0,.4.2.6.3.1,0,.2.1.3.2,0,0,0,0,0,0,.2.1.4.2.6.3.2,0,.4.2.6.3.1,0,.2,0,.3.1.2,0,.3.1.5.2,0,0,.1,0,.2,0,.3.1.6.3.9.4.2,0,.4.2.7.3.2,0,.4.2.6.2.2,0,.4.2.6.2.5.2,1,.4,1.5.6.5.2,1,.4,1.5.5,0,0,.1,0,.2,0,0,0,0,0,0,0,.1,0,.3,0,.4.1,0,0,0,0,0,0,.5.2,1,.3,1.5.5,0,0,.2,0,.3,0,.4.1.9.2,1.3.4.3,0,.6.1.9.2,0,0,.1,0,.2,0,0,0,0,0,0,0,.2,0,.4,0,.6.1.3,0,.6.1.9.2.3,0,.6.1.9.2.2,0,.4,0,.5,0,0,0,0,0,.1,0,0,0,.2,0,.3,0,.3,0,.6.1.9.1.1,0,.2,0,.4,0Z"/>
      <path class="cls-7" d="M50,57.8s0,0,0,0c-4.4,1.4-8.9,2.7-13.4,3.9,3.3,1.6,6.6,3,9.9,4.2,3.3,1.2,6.5,2.1,9.7,2.9,3.2.8,6.3,1.3,9.4,1.7,6.1-.9,12.3-2.9,18.5-5.9-1.4-.3-2.7-.7-4-1.1-3.3,1.6-6.7,3-10.2,4.1-1.4.4-2.8.8-4.2,1.1,0,0,0,0,0,0-1.5-.3-3-.7-4.5-1.2-1.5-.5-3.1-.9-4.6-1.4-3.1-1-6.2-2.1-9.3-3.4,2.2-.6,4.3-1.3,6.5-1.9-1.2-1-2.4-1.9-3.6-2.9Z"/>
      <path class="cls-7" d="M57.7,59.1c5.5-3,10.5-6.6,15.3-10.6.2-.2.4-.3.6-.5.1,0,.2-.2.3-.3,0,0,0,0,0,0,0,0,0,0,0,0,0,0,0,0,0,0,0,0,0,0,0,0,0,0,0,0-.1,0,0,0-.2,0-.3.1-.8.3-1.5.7-2.3,1-1.5.6-3.1,1.2-4.6,1.8-2.9,1.1-5.9,2-8.9,2.7-3,.8-6.1,1.3-9.1,1.8-.3,0-.5,0-.8,0-.1,0-.3,0-.4,0,0,0,0,0,0,0,0,0,0,0,0,0,0,0,0,0,0,0,0,0,0,0,0,0,0,0,0,0,.1,0,.3.3.6.5.9.8.6.5,1.1,1,1.7,1.5,1.1,1,2.3,1.9,3.4,2.8,2.5,1.9,5,3.7,7.6,5.4,1.5,1,3.1,1.9,4.7,2.8,0,0,.2,0,.3,0,0,0,.2,0,.2,0,.2,0,.3,0,.5-.1.3,0,.6-.2.9-.2.6-.2,1.2-.3,1.9-.5.2,0,.3,0,.5-.1-2.1-1.2-4.1-2.5-6.1-3.9"/>
      <path class="cls-8" d="M105.1,67.2c0,0-.1.1-.2.1-.3.2-.6.5-.9.7-.3.2-.6.5-.9.7-.3.2-.6.5-.9.7-.3.2-.6.5-.9.7-.1,0-.2.2-.4.3-.2.1-.3.3-.5.4-.3.2-.6.5-.9.7-.3.2-.6.5-.9.7-.3.2-.6.5-.9.7-.3.2-.6.4-.9.7-.3.2-.6.4-.9.7-.3.2-.6.4-.9.6-.3.2-.6.4-.9.7-.3.2-.6.4-.9.6-.3.2-.6.4-.9.6-.3.2-.6.4-.9.6-.3.2-.6.4-.9.6-.3.2-.6.4-.9.6-.3.2-.6.4-.9.6-.5.3-.9.6-1.4.9-.6.4-1.2.8-1.8,1.2-.6.5-1.3.9-1.9,1.3l-.3.2c-.9.6-1.8,1.2-2.7,1.8-1,.7-2.1,1.4-3.1,2-1.2.8-2.4,1.5-3.6,2.3-1.3.8-2.7,1.7-4,2.5-1,.6-1.9,1.2-2.9,1.7-.5.3-1,.6-1.6.9-1.1.7-2.3,1.3-3.4,1.9-.4.2-.7.4-1.1.6-1.3.8-2.7,1.5-4,2.2-1.2.6-2.4,1.3-3.6,1.9-1,.5-2.1,1.1-3.1,1.6-.9.5-1.8.9-2.7,1.3-.7.4-1.5.7-2.2,1.1-.6.3-1.2.6-1.8.8,0,0-.1,0-.2.1-.4.2-.8.3-1.1.5-.3.1-.6.3-.9.4-.3.1-.6.3-.9.4-.3-.2-.6-.3-.9-.5-.3-.2-.6-.3-.9-.5-.3-.2-.6-.3-.9-.5-.3-.2-.6-.3-.9-.5-.3-.2-.6-.3-.9-.5-.3-.1-.5-.3-.8-.5.3-.1.5-.2.8-.4.3-.1.6-.3.9-.4.3-.1.6-.3.9-.4.3-.1.6-.3.9-.4.3-.1.6-.3.9-.4.3-.1.6-.3.9-.4.3-.1.6-.3.9-.5.3-.1.6-.3.9-.4.5-.2.9-.5,1.3-.7.6-.3,1.2-.6,1.8-.9.8-.4,1.5-.8,2.2-1.2.9-.5,1.8-.9,2.7-1.4,1-.6,2.1-1.1,3.1-1.7,1.2-.6,2.4-1.3,3.6-2,1.3-.8,2.7-1.6,4-2.3.3-.2.6-.3.8-.5,1-.6,2.1-1.2,3.1-1.9.2-.1.3-.2.5-.3,1.5-.9,3-1.8,4.5-2.8,1.4-.9,2.7-1.7,4-2.6,1.2-.8,2.4-1.6,3.6-2.4,1-.7,2.1-1.4,3.1-2.1.9-.6,1.8-1.2,2.7-1.9.7-.5,1.5-1,2.2-1.6.6-.4,1.2-.9,1.8-1.3.5-.3.9-.6,1.4-1,.3-.2.6-.4.9-.6.3-.2.6-.5.9-.7.3-.2.6-.4.9-.7.3-.2.6-.5.9-.7.3-.2.6-.4.9-.7.3-.2.6-.5.9-.7.1,0,.2-.2.4-.3-.1,0-.3-.2-.4-.2-.3-.2-.6-.4-.9-.6-.3-.2-.6-.4-.9-.6-.3-.2-.6-.4-.9-.6-.3-.2-.6-.4-.9-.6-.3-.2-.5-.4-.8-.5.3-.2.5-.4.8-.7.3-.3.6-.5.9-.8.3-.3.6-.5.9-.8.3-.3.6-.5.9-.8.3-.3.6-.5.9-.8.1-.1.2-.2.4-.3-.1,0-.3,0-.4,0-.3,0-.6-.1-.9-.2-.3,0-.6-.1-.9-.2-.3,0-.6-.1-.9-.2-.3,0-.6-.1-.9-.2-.3,0-.6-.1-.9-.2-.3,0-.6-.1-.9-.2-.5-.1-.9-.2-1.4-.4-.6-.2-1.2-.3-1.8-.5-.7-.2-1.5-.5-2.2-.8-.9-.3-1.8-.6-2.7-1-1-.4-2.1-.9-3.1-1.4-.5-.2-1-.5-1.5-.7-.7.5-1.4,1.1-2.1,1.6-1.3,1-2.7,2-4,3,0,0,0,0,0,0-1.5,1-2.9,2-4.4,2.9-.6.4-1.2.8-1.9,1.1-.9-.6-1.7-1.2-2.6-1.9-1.2-.9-2.3-1.7-3.4-2.7,1.2-.6,2.3-1.3,3.4-2,1.5-.9,3-1.9,4.5-2.9,1.5-1,3-2.1,4.5-3.3,1.3-1,2.6-2,3.9-3.1,0,0,0,0,0,0,.9-.4,2-.9,2.8-1.4.2.2.5.5.7.7,0,0,.1.1.2.2,1,.9,2.1,1.9,3.1,2.8.1,0,.2.2.3.3.8.7,1.6,1.3,2.4,2,.7.6,1.4,1.1,2.1,1.7,0,0,.1,0,.2.1.6.5,1.2.9,1.8,1.4.5.3.9.7,1.4,1,.3.2.6.5.9.7.3.2.6.4.9.7.3.2.6.4.9.6.3.2.6.4.9.6.3.2.6.4.9.6.3.2.6.4.9.6.3.2.6.4.9.6,0,0,0,0,.1,0,.3.2.5.3.8.5.3.2.6.4.9.6.3.2.6.4.9.6.3.2.6.4.9.6.3.2.6.4.9.6.3.2.6.4.9.6.3.2.6.4.9.5.3.2.6.4.9.5.3.2.6.3.9.5.3.2.6.3.9.5.3.2.6.3.9.5,0,0,.1,0,.2,0Z"/>
      <polygon class="cls-7" points="62.2 62.9 66.8 66.8 70.2 68.3 80.8 64.2 79.2 60.4 69.3 57.4 62.2 62.9"/>
      <path class="cls-4" d="M71.9,48.6"/>
    </g>
  </g>
  <g id="Patch">
    <g>
      <polygon class="cls-2" points="49.8 57.7 53.8 60.9 47.1 62.7 47 56.9 49.8 57.7"/>
      <polygon class="cls-2" points="94.6 61.1 94.6 68.2 91.1 68.7 89.9 66.4 89.1 65.8 94.6 61.1"/>
      <polygon class="cls-2" points="104.7 67.2 104.7 74.3 101.3 74.8 100 72.6 99.2 71.9 104.7 67.2"/>
    </g>
  </g>
</svg>